<svg width="367" height="78" viewBox="0 0 367 78" fill="none" xmlns="http://www.w3.org/2000/svg">
<path d="M109.128 43.16L110.856 42.68C111.816 42.68 112.296 43.16 112.296 44.12C112.296 44.824 111.864 45.32 111 45.608C110.136 45.896 109.512 46.04 109.128 46.04C107.592 46.04 106.424 45.08 105.624 43.16C105.176 42.104 104.792 39.88 104.472 36.488C104.184 33.096 103.896 30.04 103.608 27.32C103.352 24.568 103.016 23.192 102.6 23.192C102.216 23.192 101.736 25.416 101.16 29.864C101.032 30.92 100.92 31.832 100.824 32.6C100.76 33.336 100.648 34.28 100.488 35.432C100.36 36.552 100.264 37.368 100.2 37.88C99.944 40.024 99.544 41.608 99 42.632C98.456 43.624 97.576 44.12 96.36 44.12C94.824 44.12 93.656 43.16 92.856 41.24C92.376 40.184 91.72 38.008 90.888 34.712C90.088 31.384 89.336 28.392 88.632 25.736C87.96 23.08 87.496 21.752 87.24 21.752C86.824 21.752 86.472 24.888 86.184 31.16C85.928 37.4 85.8 42.216 85.8 45.608C85.8 46.536 85.32 47 84.36 47C83.848 47 83.48 46.856 83.256 46.568C83.032 46.248 82.92 45.928 82.92 45.608C82.92 42.536 83.032 38.136 83.256 32.408C83.512 26.648 83.816 23.096 84.168 21.752C84.68 19.832 85.688 18.872 87.192 18.872C88.696 18.872 89.8 19.832 90.504 21.752C90.888 22.776 91.48 25 92.28 28.424C93.112 31.816 93.896 34.808 94.632 37.4C95.368 39.96 95.928 41.24 96.312 41.24C96.728 41.24 97.064 40.024 97.32 37.592C98.408 28.888 99.112 24.088 99.432 23.192C99.72 22.296 100.088 21.592 100.536 21.08C101.016 20.568 101.704 20.312 102.6 20.312C104.136 20.312 105.24 21.272 105.912 23.192C106.168 23.832 106.424 25.864 106.68 29.288C106.936 32.712 107.256 35.88 107.64 38.792C108.024 41.704 108.52 43.16 109.128 43.16ZM129.966 34.04C129.966 38.072 129.774 42.392 129.39 47C129.038 51.64 128.59 55.192 128.046 57.656C127.438 60.536 125.998 61.976 123.726 61.976C119.566 61.976 117.486 59.192 117.486 53.624C117.486 52.088 117.902 50.6 118.734 49.16C119.598 47.72 120.558 47 121.614 47C122.702 47 123.246 47.48 123.246 48.44C123.246 48.664 123.022 48.936 122.574 49.256C121.102 50.28 120.366 51.704 120.366 53.528C120.366 55.384 120.59 56.776 121.038 57.704C121.518 58.632 122.414 59.096 123.726 59.096C124.494 59.096 125.022 58.36 125.31 56.888C125.918 54.04 126.414 49.528 126.798 43.352C126.926 41.4 126.974 40.216 126.942 39.8C126.27 40.76 125.774 41.368 125.454 41.624C125.166 41.848 124.862 42.088 124.542 42.344C124.254 42.568 123.966 42.76 123.678 42.92C123.422 43.048 123.086 43.208 122.67 43.4C122.286 43.56 121.886 43.688 121.47 43.784C120.51 44.008 119.502 44.12 118.446 44.12C116.75 44.12 115.534 43.16 114.798 41.24C113.806 38.712 113.118 35.512 112.734 31.64C112.702 31.448 112.686 31.192 112.686 30.872C112.686 30.104 113.134 29.72 114.03 29.72C114.958 29.72 115.47 30.2 115.566 31.16C115.79 33.272 116.158 35.48 116.67 37.784C117.214 40.088 117.806 41.24 118.446 41.24C120.526 41.24 122.142 40.712 123.294 39.656C124.446 38.6 125.71 36.728 127.086 34.04C127.47 33.08 127.95 32.6 128.526 32.6C129.486 32.6 129.966 33.08 129.966 34.04ZM151.778 42.968C148.482 44.696 144.098 45.56 138.626 45.56C137.25 45.56 136.098 45.128 135.17 44.264C134.274 43.368 133.826 42.376 133.826 41.288C133.826 38.12 135.25 35.4 138.098 33.128C140.978 30.856 144.034 29.72 147.266 29.72C148.386 29.72 149.538 29.944 150.722 30.392C151.938 30.84 152.546 31.416 152.546 32.12C152.546 32.504 152.402 32.84 152.114 33.128C151.826 33.416 151.49 33.56 151.106 33.56C150.722 33.56 150.21 33.4 149.57 33.08C148.93 32.76 148.162 32.6 147.266 32.6C144.77 32.6 142.386 33.48 140.114 35.24C137.842 36.968 136.706 38.968 136.706 41.24C136.706 41.688 136.882 42.04 137.234 42.296C137.586 42.552 138.242 42.68 139.202 42.68C140.162 42.68 141.346 42.616 142.754 42.488C144.162 42.36 145.89 42.008 147.938 41.432C149.986 40.856 151.458 40.12 152.354 39.224C153.25 38.328 153.954 37.88 154.466 37.88C155.426 37.88 155.906 38.36 155.906 39.32C155.906 39.64 155.666 40.04 155.186 40.52C154.706 41 154.466 41.4 154.466 41.72C154.466 43.32 157.506 44.12 163.586 44.12C165.186 44.12 166.706 43.8 168.146 43.16C169.618 42.52 170.354 41.592 170.354 40.376C170.354 39.16 169.842 38.2 168.818 37.496C167.794 36.792 166.594 36.44 165.218 36.44C164.866 36.44 164.37 36.52 163.73 36.68C163.122 36.84 162.754 36.92 162.626 36.92C161.666 36.92 161.186 36.44 161.186 35.48C161.186 35 161.602 34.568 162.434 34.184C163.266 33.768 164.194 33.56 165.218 33.56C167.714 33.56 169.666 34.248 171.074 35.624C172.482 37 173.186 38.664 173.186 40.616C173.186 42.568 172.226 44.12 170.306 45.272C168.386 46.424 166.146 47 163.586 47C156.578 47 152.642 45.656 151.778 42.968ZM201.548 47C200.588 47 200.108 46.52 200.108 45.56C200.108 44.6 200.588 44.12 201.548 44.12C207.948 44.12 212.348 43.64 214.748 42.68C215.868 42.232 216.428 41.768 216.428 41.288C216.428 40.808 216.028 40.376 215.228 39.992C214.46 39.608 213.148 39.112 211.292 38.504C209.468 37.896 208.076 37.384 207.116 36.968C202.444 35.016 200.108 32.056 200.108 28.088C200.108 25.496 201.228 23.32 203.468 21.56C205.708 19.768 208.396 18.872 211.532 18.872C213.26 18.872 214.7 19.384 215.852 20.408C217.036 21.432 217.628 22.664 217.628 24.104C217.628 25.544 217.068 26.824 215.948 27.944C214.828 29.064 214.06 29.624 213.644 29.624C212.684 29.624 212.204 29.144 212.204 28.184C212.204 27.768 212.62 27.144 213.452 26.312C214.316 25.448 214.748 24.792 214.748 24.344C214.748 23.576 214.444 22.952 213.836 22.472C213.26 21.992 212.508 21.752 211.58 21.752C209.212 21.752 207.18 22.36 205.484 23.576C203.82 24.76 202.988 26.2 202.988 27.896C202.988 29.592 203.452 30.92 204.38 31.88C205.34 32.84 206.412 33.576 207.596 34.088C208.812 34.568 210.028 35.016 211.244 35.432C212.46 35.816 213.468 36.168 214.268 36.488C215.1 36.776 215.932 37.144 216.764 37.592C218.46 38.52 219.308 39.736 219.308 41.24C219.308 43.192 217.9 44.648 215.084 45.608C212.3 46.536 207.788 47 201.548 47ZM227.49 30.68C227.49 30.2 227.906 29.752 228.738 29.336C230.37 28.536 231.506 27.8 232.146 27.128C233.682 25.528 234.45 23.224 234.45 20.216C234.45 19.352 234.306 18.584 234.018 17.912C233.762 17.208 233.378 16.856 232.866 16.856C232.386 16.856 231.874 17.08 231.33 17.528C230.786 17.976 230.194 18.712 229.554 19.736C228.946 20.76 228.386 21.976 227.874 23.384C226.658 26.712 226.05 30.904 226.05 35.96C226.05 38.104 226.37 39.528 227.01 40.232C227.65 40.904 228.354 41.24 229.122 41.24C229.89 41.24 230.562 40.888 231.138 40.184C231.714 39.48 232.242 38.712 232.722 37.88C233.202 37.048 233.874 36.28 234.738 35.576C235.602 34.872 236.546 34.52 237.57 34.52C238.466 34.52 239.106 34.696 239.49 35.048C239.906 35.4 240.226 35.704 240.45 35.96C240.674 36.184 240.866 36.488 241.026 36.872C241.218 37.256 241.378 37.576 241.506 37.832C241.634 38.088 241.746 38.44 241.842 38.888C241.97 39.336 242.05 39.64 242.082 39.8L242.37 41.24C242.626 42.52 243.346 43.16 244.53 43.16C245.746 43.16 246.834 42.856 247.794 42.248C248.754 41.64 249.234 40.984 249.234 40.28C249.234 39.32 249.746 38.84 250.77 38.84C251.794 38.84 252.754 39.656 253.65 41.288C254.29 42.44 255.17 43.208 256.29 43.592C257.442 43.944 258.834 44.12 260.466 44.12C261.426 44.12 262.482 43.72 263.634 42.92C264.818 42.088 265.41 41.048 265.41 39.8C265.41 37.688 264.786 36.04 263.538 34.856C262.322 33.672 260.946 33.08 259.41 33.08C257.874 33.08 256.642 33.416 255.714 34.088C254.818 34.728 254.37 35.672 254.37 36.92C254.37 37.88 253.89 38.36 252.93 38.36C251.97 38.36 251.49 37.88 251.49 36.92C251.49 34.872 252.226 33.24 253.698 32.024C255.17 30.808 257.106 30.2 259.506 30.2C261.938 30.2 264.002 31.112 265.698 32.936C267.426 34.728 268.29 37.016 268.29 39.8C268.29 41.848 267.41 43.56 265.65 44.936C263.922 46.312 262.194 47 260.466 47C255.858 47 252.802 45.64 251.298 42.92C250.85 43.688 249.986 44.408 248.706 45.08C247.458 45.72 246.13 46.04 244.722 46.04C243.314 46.04 242.162 45.64 241.266 44.84C240.37 44.008 239.81 43.048 239.586 41.96C238.978 38.92 238.306 37.4 237.57 37.4C236.994 37.4 236.418 37.752 235.842 38.456C235.298 39.16 234.786 39.928 234.306 40.76C233.858 41.592 233.202 42.36 232.338 43.064C231.474 43.768 230.578 44.12 229.65 44.12C228.754 44.12 227.97 44.008 227.298 43.784C226.658 43.56 226.002 43.192 225.33 42.68C223.89 41.56 223.17 39.32 223.17 35.96C223.17 29.976 224.098 24.824 225.954 20.504C227.842 16.152 230.114 13.976 232.77 13.976C234.21 13.976 235.346 14.616 236.178 15.896C237.01 17.144 237.426 18.552 237.426 20.12C237.426 21.688 237.234 23.096 236.85 24.344C236.498 25.592 236.082 26.6 235.602 27.368C235.154 28.104 234.53 28.824 233.73 29.528C232.898 30.232 232.258 30.712 231.81 30.968C230.466 31.736 229.506 32.12 228.93 32.12C227.97 32.12 227.49 31.64 227.49 30.68ZM276.908 61.976C276.044 61.976 275.564 61.496 275.468 60.536C275.308 58.872 274.7 55 273.644 48.92C272.62 42.872 272.108 39.192 272.108 37.88C272.108 35.448 273.244 33.48 275.516 31.976C277.788 30.472 280.332 29.72 283.148 29.72C285.26 29.72 286.988 30.328 288.332 31.544C289.676 32.76 290.348 34.392 290.348 36.44C290.348 37.656 289.996 38.776 289.292 39.8C288.62 40.824 287.804 41.624 286.844 42.2C284.796 43.48 283.084 44.12 281.708 44.12C280.748 44.12 280.268 43.64 280.268 42.68C280.268 41.816 280.748 41.352 281.708 41.288C282.7 41.192 283.9 40.68 285.308 39.752C286.748 38.824 287.468 37.736 287.468 36.488C287.468 35.208 287.084 34.248 286.316 33.608C285.548 32.936 284.332 32.6 282.668 32.6C281.036 32.6 279.34 33.08 277.58 34.04C275.852 35 274.988 36.216 274.988 37.688C274.988 39.16 275.66 43.8 277.004 51.608L277.532 48.44C277.692 47.48 278.172 47 278.972 47C279.932 47 280.412 47.48 280.412 48.44C280.412 48.6 280.396 48.776 280.364 48.968L278.492 60.536C278.46 60.824 278.316 61.128 278.06 61.448C277.804 61.8 277.42 61.976 276.908 61.976Z" fill="#593018"/>
<g clip-path="url(#clip0)">
<path d="M55.007 19.9527C54.9126 18.6399 53.1018 18.7942 53.1961 20.109C53.2003 20.166 53.5979 25.8934 53.0059 33.6416C52.4607 40.7751 50.9412 51.1065 46.7979 59.8152C46.2388 60.9904 47.8541 61.9013 48.4083 60.7368C52.6914 51.7342 54.2568 41.1237 54.8159 33.8078C55.4203 25.8998 55.0242 20.1918 55.007 19.9527V19.9527Z" fill="#BF6724"/>
<path d="M8.90002 23.6207C8.45536 14.12 9.00682 7.82531 9.01252 7.76288C9.13058 6.45229 7.32338 6.2544 7.20495 7.56659C7.18146 7.82637 6.63532 14.04 7.08398 23.6787C7.49763 32.5672 8.88076 46.1225 13.1206 60.2236C13.4969 61.4753 15.2221 60.8515 14.8456 59.5997C10.674 45.7259 9.3098 32.3764 8.90002 23.6207V23.6207Z" fill="#BF6724"/>
<path d="M45.7827 18.6959C45.7827 21.1893 49.413 21.0739 53.8913 21.0739C58.3696 21.0739 62 21.1893 62 18.6959C62 16.2025 58.3696 12.0445 53.8913 12.0445C49.413 12.0445 45.7827 16.2025 45.7827 18.6959Z" fill="#FFE8CF"/>
<path d="M53.8913 12.0445C53.247 12.0445 52.621 12.133 52.0201 12.2877C55.5958 13.2089 58.2575 16.5612 58.2575 18.6958C58.2575 20.8303 55.5957 21.0528 52.0201 21.0726C52.621 21.0759 53.247 21.0738 53.8913 21.0738C58.3696 21.0738 62 21.1892 62 18.6958C62 16.2025 58.3696 12.0445 53.8913 12.0445V12.0445Z" fill="#F2CDAE"/>
<path d="M16.2174 6.65138C16.2174 9.1448 12.587 9.02939 8.10868 9.02939C3.63039 9.02939 0 9.1448 0 6.65138C0 4.15796 3.63039 0 8.10868 0C12.587 0 16.2174 4.15796 16.2174 6.65138Z" fill="#FFE8CF"/>
<path d="M8.10869 0C7.46435 0 6.83842 0.0884531 6.23743 0.24318C9.8132 1.16437 12.4748 4.51669 12.4748 6.65125C12.4748 8.78581 9.81308 9.00827 6.23743 9.02806C6.83842 9.03138 7.46435 9.02926 8.10869 9.02926C12.587 9.02926 16.2174 9.14467 16.2174 6.65125C16.2174 4.15796 12.587 0 8.10869 0Z" fill="#F2CDAE"/>
<path d="M40.7304 58.9491C34.2435 58.9491 27.7565 58.9491 21.2696 58.9491C18.2081 48.9641 18.7976 38.5704 21.2696 28.3945H40.7304C43.2025 38.5704 43.792 48.9641 40.7304 58.9491Z" fill="#BF6724"/>
<path d="M40.7304 28.3945H36.988C39.4601 38.5704 40.0495 48.9641 36.988 58.9491H40.7304C43.792 48.9641 43.2025 38.5704 40.7304 28.3945V28.3945Z" fill="#A35418"/>
<path d="M33.6081 52.9526C29.0104 55.0844 23.8397 51.5767 19.4069 49.39C19.7012 52.604 20.3031 55.797 21.2696 58.9492H40.7304C42.6657 52.6373 43.1408 46.162 42.6049 39.6817C38.6609 42.9747 38.6889 50.5969 33.6081 52.9526V52.9526Z" fill="#FFE8CF"/>
<path d="M42.6049 39.6817C40.9459 41.0668 39.9898 43.2178 39.0605 45.4207C38.989 49.9743 38.3514 54.5022 36.9879 58.9492H40.7303C42.6657 52.6372 43.1408 46.162 42.6049 39.6817V39.6817Z" fill="#F2CDAE"/>
<path d="M58.8812 68H3.7424C1.67557 68 0 66.1623 0 63.8954V59.0223C0 58.7289 0.216879 58.491 0.484375 58.491H61.5156C61.7831 58.491 62 58.7289 62 59.0223V64.5796C62 66.4685 60.6037 68 58.8812 68Z" fill="#F2AC57"/>
<path d="M58.2576 58.4909V64.5794C58.2576 66.4686 56.8613 68 55.1388 68H58.8812C60.6037 68 62 66.4686 62 64.5794V59.0222C62 58.7288 61.7831 58.4909 61.5156 58.4909H58.2576Z" fill="#E39E4B"/>
<path d="M51.0845 24.4947C51.0845 30.8037 42.0923 30.5118 31 30.5118C19.9077 30.5118 10.9155 30.8039 10.9155 24.4947C10.9155 18.1856 19.9077 7.66473 31 7.66473C42.0923 7.66473 51.0845 18.1857 51.0845 24.4947Z" fill="#FFE8CF"/>
<path d="M51.0846 24.4946C51.0846 27.4802 49.0708 28.9876 45.7734 29.7473C44.8604 29.9572 43.8505 30.1112 42.7558 30.2215C41.1997 30.3808 39.4765 30.4539 37.6299 30.4884H37.6287C36.735 30.5043 35.8135 30.511 34.8665 30.5136C34.8665 30.5136 34.8665 30.5136 34.8653 30.5136C33.6144 30.5163 32.3223 30.5123 31 30.5123C29.6704 30.5123 28.3722 30.5163 27.1153 30.5136C27.1141 30.5136 27.1141 30.5136 27.1141 30.5136C26.1671 30.511 25.2432 30.5043 24.3483 30.4871C22.5622 30.4552 20.8911 30.3835 19.3762 30.2347C19.375 30.2361 19.375 30.2347 19.375 30.2347C18.2755 30.1272 17.2595 29.9784 16.3392 29.7712H16.338C12.9752 29.0208 10.9154 27.5134 10.9154 24.4946C10.9154 18.186 19.9078 7.66458 31 7.66458C42.0922 7.66458 51.0846 18.186 51.0846 24.4946V24.4946Z" fill="#FFE8CF"/>
<path d="M31 7.66473C30.3688 7.66473 29.745 7.70046 29.1287 7.7658C39.3436 8.84982 47.3419 18.5446 47.3419 24.4947C47.3419 30.01 40.4701 30.4807 31.3307 30.5119C42.2703 30.517 51.0845 30.7409 51.0845 24.4947C51.0845 18.1857 42.0923 7.66473 31 7.66473V7.66473Z" fill="#F2CDAE"/>
<path d="M19.375 30.2348C18.2755 30.1272 17.2595 29.9784 16.3392 29.7712H16.338C16.1103 29.3409 15.9141 28.8601 15.7507 28.3316C15.2493 26.7073 15.2433 25.1852 15.2433 25.1201C15.2433 24.5703 15.6502 24.1241 16.1515 24.1241C16.6528 24.1241 17.0597 24.5703 17.0597 25.1188C17.0609 25.1812 17.1081 29.2187 19.375 30.2348V30.2348Z" fill="#E6B793"/>
<path d="M27.1141 30.5137C26.1671 30.511 25.2432 30.5044 24.3483 30.4871C24.0129 29.9545 23.7344 29.3303 23.5152 28.6211C23.0139 26.9968 23.0078 25.4748 23.0078 25.411C23.0078 24.8612 23.4147 24.4149 23.916 24.4149C24.4173 24.4149 24.8242 24.8598 24.8242 25.4097C24.8254 25.4708 24.8727 29.4777 27.1141 30.5137Z" fill="#E6B793"/>
<path d="M38.9704 25.411C38.9704 25.4748 38.9643 26.9968 38.463 28.6211C38.2438 29.3303 37.9641 29.9545 37.6299 30.4884H37.6287C36.735 30.5044 35.8135 30.511 34.8665 30.5137C37.1249 29.4751 37.154 25.4548 37.154 25.411C37.154 24.8612 37.5596 24.4149 38.0622 24.4149C38.5635 24.4149 38.9704 24.8612 38.9704 25.411V25.411Z" fill="#E6B793"/>
<path d="M46.8548 25.1201C46.8548 25.1852 46.8488 26.7073 46.3487 28.3316C46.1888 28.8509 45.9963 29.3223 45.7735 29.7473C44.8604 29.9572 43.8505 30.1112 42.7558 30.2215C45.0106 29.1816 45.0384 25.164 45.0384 25.1201C45.0384 24.5703 45.4453 24.1241 45.9466 24.1241C46.4479 24.1241 46.8548 24.5703 46.8548 25.1201Z" fill="#E6B793"/>
</g>
<defs>
<clipPath id="clip0">
<rect width="62" height="68" fill="white"/>
</clipPath>
</defs>
</svg>
